<svg width="120" height="120" viewBox="0 0 120 120" fill="none" xmlns="http://www.w3.org/2000/svg">
<path d="M94.325 29.1054L79.633 6.04923C78.5441 4.34396 77.0967 2.94516 75.4109 1.96874C73.7252 0.992318 71.8494 0.466395 69.9392 0.434551L42.0575 0H42C27.6053 0 16.5608 2.61573 9.4475 15.3815C2.825 27.2643 0 47.506 0 83.0631V87.4087H9.13925L3.256 120H11.4085L17.2917 87.4087H20C26.5329 87.472 32.8266 84.7413 37.522 79.8062C41.7667 75.3938 44.8285 69.3574 46.3768 62.3497L46.3908 62.2867L53.2515 26.5715H45.079L38.5843 60.3817C36.6063 69.2574 30.6915 78.7176 20 78.7176H8.015C8.23225 47.9552 10.8105 29.7168 16.2913 19.881C20.8913 11.6245 27.615 8.69374 41.9723 8.68967L69.8242 9.12422C70.461 9.13475 71.0863 9.31002 71.6482 9.6355C72.2102 9.96098 72.6926 10.4273 73.0555 10.9958L89.675 37.074L112 41.1164V45.7224L108.277 67.2927C107.178 73.6592 105.3 76.8662 97.5975 77.8713L66.021 83.7402L65.8122 120H73.8122L73.979 91.0771L98.654 86.4871C104.244 85.7405 108.368 83.7834 111.26 80.5058C113.733 77.7035 115.238 74.1233 116.14 68.8946L120 46.5301V33.754L94.325 29.1054Z" fill="white"/>
</svg>
